# xmcd
#
# Track frame offsets:
#	150
#	7805
#	18097
#	28367
#	33910
#	42000
#	52599
#	62235
#	71172
#	79250
#	88667
#	101637
#	111822
#	120545
#	133280
#	140775
#	153702
#	159750
#	168997
#	177840
#	188460
#	197959
#	205772
#	214127
#	222752
#	232215
#	240399
#	250815
#	260150
#	268347
#	280112
#
# Disc length: 3849 seconds
#
# Revision: 1
# Processed by: cddbd v1.4PL0 Copyright (c) Steve Scherf et al.
# Submitted via: audiograbber 1.80
#
DISCID=be0f071f
DTITLE=johnny horton - the early years disc 3
DYEAR=1900
DGENRE=
TTITLE0=won't you love me, love, love me 1991
TTITLE1=why did it happen to me 1991
TTITLE2=you, you, you (caused this heartache) 1991
TTITLE3=broken hearted gypsy 1991
TTITLE4=all for the love of a girl 1991
TTITLE5=my heart stopped, trembled and died 1991
TTITLE6=i'm a fishin'man 1991
TTITLE7=where do you think you would stand 1991
TTITLE8=the devil made a masterpiece 1991
TTITLE9=because i'm a jealous man 1991
TTITLE10=i'm the one that breaks in two 1991
TTITLE11=the train with the rhumba beat 1991
TTITLE12='cause you're the one for me 1991
TTITLE13=none of you but all of me 1991
TTITLE14=dark haired beauty frum cuba 1991
TTITLE15=honky tonk jelly roll blues (with band)
TTITLE16=love and tell 1991
TTITLE17=i wish heartaches were strangers 1991
TTITLE18=confusion 1991
TTITLE19=shadows on the bayou 1991
TTITLE20=somebody's rockin' my broken heart 1991
TTITLE21=talk gobbler talk 1991
TTITLE22=two eyed sunday pants 1991
TTITLE23=down that river road 1991
TTITLE24=egg money 1991
TTITLE25=confusion 1991
TTITLE26=first train headin' south 1991
TTITLE27=somebody's rockin' my broken heart (1) 1991
TTITLE28=smokey joe's barbecue 1991
TTITLE29=betty lorraine 1991
TTITLE30=honky tonk jelly roll blues (1) 1991
EXTD=
EXTT0=
EXTT1=
EXTT2=
EXTT3=
EXTT4=
EXTT5=
EXTT6=
EXTT7=
EXTT8=
EXTT9=
EXTT10=
EXTT11=
EXTT12=
EXTT13=
EXTT14=
EXTT15=
EXTT16=
EXTT17=
EXTT18=
EXTT19=
EXTT20=
EXTT21=
EXTT22=
EXTT23=
EXTT24=
EXTT25=
EXTT26=
EXTT27=
EXTT28=
EXTT29=
EXTT30=
PLAYORDER=
